<mxfile host="app.diagrams.net" agent="Mozilla/5.0 (Macintosh; Intel Mac OS X 10_15_7) AppleWebKit/605.1.15 (KHTML, like Gecko) Version/18.0.1 Safari/605.1.15" version="24.7.17">
  <diagram id="CIYdKKqNAJBwTVAFqt9w" name="Page-1">
    <mxGraphModel dx="1427" dy="802" grid="1" gridSize="10" guides="1" tooltips="1" connect="1" arrows="1" fold="1" page="1" pageScale="1" pageWidth="1169" pageHeight="1654" math="0" shadow="0">
      <root>
        <mxCell id="0" />
        <mxCell id="1" parent="0" />
        <mxCell id="LQXSZ3eL3IMsYw5GJXrv-38" value="" style="rounded=0;whiteSpace=wrap;html=1;fillColor=#ffe6cc;strokeColor=#d79b00;" parent="1" vertex="1">
          <mxGeometry x="300" y="90" width="490" height="690" as="geometry" />
        </mxCell>
        <mxCell id="LQXSZ3eL3IMsYw5GJXrv-49" value="" style="rounded=0;whiteSpace=wrap;html=1;" parent="1" vertex="1">
          <mxGeometry x="930" y="240" width="190" height="150" as="geometry" />
        </mxCell>
        <mxCell id="0QP-IHk7IyoN1cNLL2Y5-26" value="" style="endArrow=none;dashed=1;html=1;dashPattern=1 3;strokeWidth=2;rounded=0;" parent="1" edge="1">
          <mxGeometry width="50" height="50" relative="1" as="geometry">
            <mxPoint x="192" y="72" as="sourcePoint" />
            <mxPoint x="192" y="70" as="targetPoint" />
            <Array as="points">
              <mxPoint x="1140" y="70" />
              <mxPoint x="1140" y="800" />
              <mxPoint x="190" y="800" />
            </Array>
          </mxGeometry>
        </mxCell>
        <mxCell id="0QP-IHk7IyoN1cNLL2Y5-2" value="tododb" style="aspect=fixed;html=1;points=[];align=center;image;fontSize=12;image=img/lib/azure2/databases/Azure_Database_PostgreSQL_Server.svg;" parent="1" vertex="1">
          <mxGeometry x="1060" y="300" width="30" height="50" as="geometry" />
        </mxCell>
        <mxCell id="0QP-IHk7IyoN1cNLL2Y5-3" value="Application Insights" style="aspect=fixed;html=1;points=[];align=center;image;fontSize=12;image=img/lib/azure2/devops/Application_Insights.svg;" parent="1" vertex="1">
          <mxGeometry x="895" y="470" width="30" height="50" as="geometry" />
        </mxCell>
        <mxCell id="0QP-IHk7IyoN1cNLL2Y5-4" value="KeyVault" style="aspect=fixed;html=1;points=[];align=center;image;fontSize=12;image=img/lib/azure2/security/Key_Vaults.svg;" parent="1" vertex="1">
          <mxGeometry x="1000" y="110" width="70" height="70" as="geometry" />
        </mxCell>
        <mxCell id="0QP-IHk7IyoN1cNLL2Y5-5" value="LogAnalytics (Central)" style="sketch=0;aspect=fixed;html=1;points=[];align=center;image;fontSize=12;image=img/lib/mscae/Log_Analytics_Workspaces.svg;" parent="1" vertex="1">
          <mxGeometry x="1030" y="470" width="50" height="50" as="geometry" />
        </mxCell>
        <mxCell id="0QP-IHk7IyoN1cNLL2Y5-9" value="" style="aspect=fixed;html=1;points=[];align=center;image;fontSize=12;image=img/lib/azure2/general/Browser.svg;" parent="1" vertex="1">
          <mxGeometry x="60" y="250" width="70" height="50" as="geometry" />
        </mxCell>
        <mxCell id="0QP-IHk7IyoN1cNLL2Y5-10" value="" style="aspect=fixed;html=1;points=[];align=center;image;fontSize=12;image=img/lib/azure2/general/Browser.svg;" parent="1" vertex="1">
          <mxGeometry x="70" y="260" width="70" height="50" as="geometry" />
        </mxCell>
        <mxCell id="0QP-IHk7IyoN1cNLL2Y5-11" value="" style="aspect=fixed;html=1;points=[];align=center;image;fontSize=12;image=img/lib/azure2/general/Browser.svg;" parent="1" vertex="1">
          <mxGeometry x="80" y="270" width="70" height="50" as="geometry" />
        </mxCell>
        <mxCell id="0QP-IHk7IyoN1cNLL2Y5-12" value="" style="aspect=fixed;html=1;points=[];align=center;image;fontSize=12;image=img/lib/azure2/general/Browser.svg;" parent="1" vertex="1">
          <mxGeometry x="90" y="280" width="70" height="50" as="geometry" />
        </mxCell>
        <mxCell id="0QP-IHk7IyoN1cNLL2Y5-13" value="" style="endArrow=classic;html=1;rounded=0;exitX=1.015;exitY=0.263;exitDx=0;exitDy=0;exitPerimeter=0;entryX=0;entryY=0.48;entryDx=0;entryDy=0;entryPerimeter=0;" parent="1" source="0QP-IHk7IyoN1cNLL2Y5-12" edge="1">
          <mxGeometry width="50" height="50" relative="1" as="geometry">
            <mxPoint x="170" y="300" as="sourcePoint" />
            <mxPoint x="219" y="290" as="targetPoint" />
          </mxGeometry>
        </mxCell>
        <mxCell id="0QP-IHk7IyoN1cNLL2Y5-14" value="" style="endArrow=classic;html=1;rounded=0;exitX=0.956;exitY=0.636;exitDx=0;exitDy=0;exitPerimeter=0;" parent="1" source="ZOS8axkjkWzgQE2gru72-21" edge="1">
          <mxGeometry width="50" height="50" relative="1" as="geometry">
            <mxPoint x="763" y="434" as="sourcePoint" />
            <mxPoint x="920" y="300" as="targetPoint" />
            <Array as="points">
              <mxPoint x="840" y="445" />
              <mxPoint x="840" y="300" />
            </Array>
          </mxGeometry>
        </mxCell>
        <mxCell id="0QP-IHk7IyoN1cNLL2Y5-15" value="" style="shape=actor;whiteSpace=wrap;html=1;" parent="1" vertex="1">
          <mxGeometry x="60" y="280" width="40" height="60" as="geometry" />
        </mxCell>
        <mxCell id="0QP-IHk7IyoN1cNLL2Y5-16" value="" style="shape=actor;whiteSpace=wrap;html=1;" parent="1" vertex="1">
          <mxGeometry x="70" y="290" width="40" height="60" as="geometry" />
        </mxCell>
        <mxCell id="0QP-IHk7IyoN1cNLL2Y5-17" value="" style="shape=actor;whiteSpace=wrap;html=1;" parent="1" vertex="1">
          <mxGeometry x="80" y="300" width="40" height="60" as="geometry" />
        </mxCell>
        <mxCell id="0QP-IHk7IyoN1cNLL2Y5-18" value="" style="shape=actor;whiteSpace=wrap;html=1;" parent="1" vertex="1">
          <mxGeometry x="90" y="310" width="40" height="60" as="geometry" />
        </mxCell>
        <mxCell id="0QP-IHk7IyoN1cNLL2Y5-19" value="" style="shape=actor;whiteSpace=wrap;html=1;" parent="1" vertex="1">
          <mxGeometry x="100" y="320" width="40" height="60" as="geometry" />
        </mxCell>
        <mxCell id="0QP-IHk7IyoN1cNLL2Y5-22" value="Browser users" style="text;html=1;align=center;verticalAlign=middle;resizable=0;points=[];autosize=1;strokeColor=none;fillColor=none;" parent="1" vertex="1">
          <mxGeometry x="60" y="370" width="100" height="30" as="geometry" />
        </mxCell>
        <mxCell id="0QP-IHk7IyoN1cNLL2Y5-30" value="Azure" style="text;strokeColor=none;fillColor=none;html=1;fontSize=24;fontStyle=1;verticalAlign=middle;align=center;" parent="1" vertex="1">
          <mxGeometry x="1050" y="70" width="90" height="40" as="geometry" />
        </mxCell>
        <mxCell id="gKN0slglhCB6e-M4ENdB-1" value="Azure Container Apps Deployment" style="text;strokeColor=none;fillColor=none;html=1;fontSize=24;fontStyle=1;verticalAlign=middle;align=center;" parent="1" vertex="1">
          <mxGeometry y="20" width="430" height="30" as="geometry" />
        </mxCell>
        <mxCell id="OqzE98QxFuoe7ZCpbJcY-1" value="GitHub Repo (src + CI/CD)" style="aspect=fixed;html=1;points=[];align=center;image;fontSize=12;image=img/lib/azure2/general/Branch.svg;" parent="1" vertex="1">
          <mxGeometry x="510" y="850" width="70" height="70" as="geometry" />
        </mxCell>
        <mxCell id="o04dppOLbAU1CwW2dDpO-2" value="" style="endArrow=classic;html=1;rounded=0;exitX=1;exitY=0.429;exitDx=0;exitDy=0;exitPerimeter=0;" parent="1" source="ZOS8axkjkWzgQE2gru72-19" edge="1">
          <mxGeometry width="50" height="50" relative="1" as="geometry">
            <mxPoint x="744.75" y="300.24" as="sourcePoint" />
            <mxPoint x="930" y="300" as="targetPoint" />
          </mxGeometry>
        </mxCell>
        <mxCell id="o04dppOLbAU1CwW2dDpO-1" value="&lt;font style=&quot;font-size: 10px;&quot;&gt;PGSQL&lt;br&gt;Firewall&lt;br&gt;(Azure IPs)&lt;/font&gt;" style="image;html=1;image=img/lib/clip_art/networking/Firewall_02_128x128.png" parent="1" vertex="1">
          <mxGeometry x="920" y="275" width="30" height="40" as="geometry" />
        </mxCell>
        <mxCell id="LQXSZ3eL3IMsYw5GJXrv-3" value="GitHub Repo (config)" style="aspect=fixed;html=1;points=[];align=center;image;fontSize=12;image=img/lib/azure2/general/Branch.svg;" parent="1" vertex="1">
          <mxGeometry x="380" y="850" width="70" height="70" as="geometry" />
        </mxCell>
        <mxCell id="LQXSZ3eL3IMsYw5GJXrv-15" value="" style="endArrow=classic;html=1;rounded=0;entryX=0.037;entryY=0.545;entryDx=0;entryDy=0;entryPerimeter=0;exitX=1;exitY=0.52;exitDx=0;exitDy=0;exitPerimeter=0;" parent="1" target="ZOS8axkjkWzgQE2gru72-4" edge="1">
          <mxGeometry width="50" height="50" relative="1" as="geometry">
            <mxPoint x="269" y="292" as="sourcePoint" />
            <mxPoint x="376.25" y="210.24" as="targetPoint" />
          </mxGeometry>
        </mxCell>
        <mxCell id="LQXSZ3eL3IMsYw5GJXrv-16" value="" style="endArrow=classic;html=1;rounded=0;exitX=1;exitY=0.5;exitDx=0;exitDy=0;exitPerimeter=0;entryX=0.029;entryY=0.485;entryDx=0;entryDy=0;entryPerimeter=0;" parent="1" target="ZOS8axkjkWzgQE2gru72-5" edge="1">
          <mxGeometry width="50" height="50" relative="1" as="geometry">
            <mxPoint x="269" y="291" as="sourcePoint" />
            <mxPoint x="376.25" y="300.24" as="targetPoint" />
          </mxGeometry>
        </mxCell>
        <mxCell id="LQXSZ3eL3IMsYw5GJXrv-17" value="" style="endArrow=classic;html=1;rounded=0;exitX=1;exitY=0.5;exitDx=0;exitDy=0;exitPerimeter=0;entryX=-0.015;entryY=0.439;entryDx=0;entryDy=0;entryPerimeter=0;" parent="1" source="ZOS8axkjkWzgQE2gru72-2" target="ZOS8axkjkWzgQE2gru72-6" edge="1">
          <mxGeometry width="50" height="50" relative="1" as="geometry">
            <mxPoint x="255" y="349" as="sourcePoint" />
            <mxPoint x="285" y="358.70909090909095" as="targetPoint" />
          </mxGeometry>
        </mxCell>
        <mxCell id="LQXSZ3eL3IMsYw5GJXrv-18" value="" style="endArrow=classic;html=1;rounded=0;entryX=-0.022;entryY=0.485;entryDx=0;entryDy=0;entryPerimeter=0;exitX=1;exitY=0.48;exitDx=0;exitDy=0;exitPerimeter=0;" parent="1" target="ZOS8axkjkWzgQE2gru72-7" edge="1">
          <mxGeometry width="50" height="50" relative="1" as="geometry">
            <mxPoint x="269" y="290" as="sourcePoint" />
            <mxPoint x="376.25" y="517.24" as="targetPoint" />
          </mxGeometry>
        </mxCell>
        <mxCell id="LQXSZ3eL3IMsYw5GJXrv-25" value="" style="endArrow=classic;html=1;rounded=0;entryX=0.005;entryY=0.63;entryDx=0;entryDy=0;entryPerimeter=0;" parent="1" edge="1">
          <mxGeometry width="50" height="50" relative="1" as="geometry">
            <mxPoint x="420" y="300" as="sourcePoint" />
            <mxPoint x="695.25" y="300.24" as="targetPoint" />
          </mxGeometry>
        </mxCell>
        <mxCell id="LQXSZ3eL3IMsYw5GJXrv-27" value="" style="endArrow=classic;html=1;rounded=0;exitX=1;exitY=0.485;exitDx=0;exitDy=0;exitPerimeter=0;entryX=0;entryY=0.606;entryDx=0;entryDy=0;entryPerimeter=0;" parent="1" source="ZOS8axkjkWzgQE2gru72-5" target="ZOS8axkjkWzgQE2gru72-21" edge="1">
          <mxGeometry width="50" height="50" relative="1" as="geometry">
            <mxPoint x="425.75" y="300.24" as="sourcePoint" />
            <mxPoint x="695.25" y="384.24" as="targetPoint" />
          </mxGeometry>
        </mxCell>
        <mxCell id="LQXSZ3eL3IMsYw5GJXrv-28" value="" style="endArrow=classic;html=1;rounded=0;entryX=0.005;entryY=0.63;entryDx=0;entryDy=0;entryPerimeter=0;exitX=1;exitY=0.545;exitDx=0;exitDy=0;exitPerimeter=0;" parent="1" source="ZOS8axkjkWzgQE2gru72-5" edge="1">
          <mxGeometry width="50" height="50" relative="1" as="geometry">
            <mxPoint x="425.75" y="300.24" as="sourcePoint" />
            <mxPoint x="695.25" y="580.24" as="targetPoint" />
          </mxGeometry>
        </mxCell>
        <mxCell id="LQXSZ3eL3IMsYw5GJXrv-31" value="" style="endArrow=classic;html=1;rounded=0;entryX=0.486;entryY=0.014;entryDx=0;entryDy=0;entryPerimeter=0;exitX=0.044;exitY=0.439;exitDx=0;exitDy=0;exitPerimeter=0;" parent="1" source="ZOS8axkjkWzgQE2gru72-18" target="LQXSZ3eL3IMsYw5GJXrv-3" edge="1">
          <mxGeometry width="50" height="50" relative="1" as="geometry">
            <mxPoint x="487.25" y="587.24" as="sourcePoint" />
            <mxPoint x="466" y="735" as="targetPoint" />
            <Array as="points">
              <mxPoint x="410" y="640" />
            </Array>
          </mxGeometry>
        </mxCell>
        <mxCell id="LQXSZ3eL3IMsYw5GJXrv-36" value="" style="endArrow=classic;html=1;rounded=0;entryX=0;entryY=0.485;entryDx=0;entryDy=0;entryPerimeter=0;exitX=0.957;exitY=0.514;exitDx=0;exitDy=0;exitPerimeter=0;" parent="1" source="ZOS8axkjkWzgQE2gru72-6" target="ZOS8axkjkWzgQE2gru72-17" edge="1">
          <mxGeometry width="50" height="50" relative="1" as="geometry">
            <mxPoint x="425.75" y="416.24" as="sourcePoint" />
            <mxPoint x="495.25" y="416.24" as="targetPoint" />
          </mxGeometry>
        </mxCell>
        <mxCell id="LQXSZ3eL3IMsYw5GJXrv-45" value="petclinicdb" style="aspect=fixed;html=1;points=[];align=center;image;fontSize=12;image=img/lib/azure2/databases/Azure_Database_PostgreSQL_Server.svg;" parent="1" vertex="1">
          <mxGeometry x="1000" y="300" width="30" height="50" as="geometry" />
        </mxCell>
        <mxCell id="LQXSZ3eL3IMsYw5GJXrv-46" value="" style="endArrow=classic;html=1;rounded=0;exitX=0.995;exitY=0.63;exitDx=0;exitDy=0;exitPerimeter=0;" parent="1" edge="1">
          <mxGeometry width="50" height="50" relative="1" as="geometry">
            <mxPoint x="744.75" y="580.24" as="sourcePoint" />
            <mxPoint x="920" y="300" as="targetPoint" />
            <Array as="points">
              <mxPoint x="840" y="580" />
              <mxPoint x="840" y="300" />
            </Array>
          </mxGeometry>
        </mxCell>
        <mxCell id="LQXSZ3eL3IMsYw5GJXrv-48" value="" style="endArrow=classic;html=1;rounded=0;exitX=1.022;exitY=0.53;exitDx=0;exitDy=0;exitPerimeter=0;" parent="1" source="ZOS8axkjkWzgQE2gru72-4" edge="1">
          <mxGeometry width="50" height="50" relative="1" as="geometry">
            <mxPoint x="425.75" y="210.24" as="sourcePoint" />
            <mxPoint x="920" y="300" as="targetPoint" />
            <Array as="points">
              <mxPoint x="780" y="220" />
              <mxPoint x="840" y="220" />
              <mxPoint x="840" y="300" />
            </Array>
          </mxGeometry>
        </mxCell>
        <mxCell id="LQXSZ3eL3IMsYw5GJXrv-52" value="&lt;i&gt;&lt;b&gt;&lt;font style=&quot;font-size: 16px;&quot;&gt;PostgreSQL Server Instance&lt;/font&gt;&lt;/b&gt;&lt;/i&gt;" style="text;html=1;strokeColor=none;fillColor=none;align=center;verticalAlign=middle;whiteSpace=wrap;rounded=0;" parent="1" vertex="1">
          <mxGeometry x="980" y="260" width="110" height="30" as="geometry" />
        </mxCell>
        <mxCell id="LQXSZ3eL3IMsYw5GJXrv-59" value="DB Connections w/ managed identities (no passwords)" style="text;html=1;strokeColor=none;fillColor=none;align=center;verticalAlign=middle;whiteSpace=wrap;rounded=0;fontSize=10;" parent="1" vertex="1">
          <mxGeometry x="840" y="243" width="90" height="50" as="geometry" />
        </mxCell>
        <mxCell id="LQXSZ3eL3IMsYw5GJXrv-60" value="" style="endArrow=classic;html=1;rounded=0;entryX=0;entryY=0.578;entryDx=0;entryDy=0;entryPerimeter=0;exitX=1;exitY=0.091;exitDx=0;exitDy=0;exitPerimeter=0;" parent="1" source="LQXSZ3eL3IMsYw5GJXrv-38" target="0QP-IHk7IyoN1cNLL2Y5-4" edge="1">
          <mxGeometry width="50" height="50" relative="1" as="geometry">
            <mxPoint x="850" y="170" as="sourcePoint" />
            <mxPoint x="900" y="120" as="targetPoint" />
          </mxGeometry>
        </mxCell>
        <mxCell id="LQXSZ3eL3IMsYw5GJXrv-62" value="KV Secrets integration via MI integration" style="text;html=1;align=center;verticalAlign=middle;resizable=0;points=[];autosize=1;strokeColor=none;fillColor=none;fontSize=10;" parent="1" vertex="1">
          <mxGeometry x="800" y="130" width="200" height="30" as="geometry" />
        </mxCell>
        <mxCell id="LQXSZ3eL3IMsYw5GJXrv-64" value="Microsoft Entra" style="verticalLabelPosition=bottom;html=1;verticalAlign=top;align=center;strokeColor=none;fillColor=#00BEF2;shape=mxgraph.azure.azure_active_directory;" parent="1" vertex="1">
          <mxGeometry x="1020" y="570" width="60" height="70" as="geometry" />
        </mxCell>
        <mxCell id="ZOS8axkjkWzgQE2gru72-1" value="DNS zone" style="image;aspect=fixed;html=1;points=[];align=center;fontSize=12;image=img/lib/azure2/networking/DNS_Zones.svg;" vertex="1" parent="1">
          <mxGeometry x="880" y="580" width="60" height="60" as="geometry" />
        </mxCell>
        <mxCell id="ZOS8axkjkWzgQE2gru72-2" value="ACA Ingress" style="verticalLabelPosition=bottom;html=1;verticalAlign=top;align=center;strokeColor=none;fillColor=#00BEF2;shape=mxgraph.azure.traffic_manager;pointerEvents=1;" vertex="1" parent="1">
          <mxGeometry x="220" y="270" width="50" height="50" as="geometry" />
        </mxCell>
        <mxCell id="ZOS8axkjkWzgQE2gru72-3" value="Container Apps&lt;div&gt;Environment&lt;/div&gt;" style="image;aspect=fixed;html=1;points=[];align=center;fontSize=12;image=img/lib/azure2/other/Container_App_Environments.svg;" vertex="1" parent="1">
          <mxGeometry x="710" y="100" width="70" height="70" as="geometry" />
        </mxCell>
        <mxCell id="ZOS8axkjkWzgQE2gru72-4" value="Todo App" style="image;aspect=fixed;html=1;points=[];align=center;fontSize=12;image=img/lib/azure2/other/Worker_Container_App.svg;" vertex="1" parent="1">
          <mxGeometry x="360" y="180" width="70" height="70" as="geometry" />
        </mxCell>
        <mxCell id="ZOS8axkjkWzgQE2gru72-5" value="Pet Clinic Api GW" style="image;aspect=fixed;html=1;points=[];align=center;fontSize=12;image=img/lib/azure2/other/Worker_Container_App.svg;" vertex="1" parent="1">
          <mxGeometry x="360" y="270" width="70" height="70" as="geometry" />
        </mxCell>
        <mxCell id="ZOS8axkjkWzgQE2gru72-6" value="Pet Clinic Grafana" style="image;aspect=fixed;html=1;points=[];align=center;fontSize=12;image=img/lib/azure2/other/Worker_Container_App.svg;" vertex="1" parent="1">
          <mxGeometry x="360" y="399" width="70" height="70" as="geometry" />
        </mxCell>
        <mxCell id="ZOS8axkjkWzgQE2gru72-7" value="Pet Clinic Admin Server" style="image;aspect=fixed;html=1;points=[];align=center;fontSize=12;image=img/lib/azure2/other/Worker_Container_App.svg;" vertex="1" parent="1">
          <mxGeometry x="360" y="510" width="70" height="70" as="geometry" />
        </mxCell>
        <mxCell id="ZOS8axkjkWzgQE2gru72-17" value="&lt;span style=&quot;white-space: normal; background-color: rgb(251, 251, 251);&quot;&gt;Pet Clinic Prometheus&lt;/span&gt;&lt;br style=&quot;white-space: normal;&quot;&gt;&lt;span style=&quot;white-space: normal; background-color: rgb(251, 251, 251);&quot;&gt;&amp;nbsp;&lt;/span&gt;&lt;font style=&quot;white-space: normal; font-size: 10px;&quot;&gt;- collects metrics from all services&lt;/font&gt;" style="image;aspect=fixed;html=1;points=[];align=center;fontSize=12;image=img/lib/azure2/other/Worker_Container_App.svg;" vertex="1" parent="1">
          <mxGeometry x="458" y="401" width="70" height="70" as="geometry" />
        </mxCell>
        <mxCell id="ZOS8axkjkWzgQE2gru72-18" value="&lt;span style=&quot;white-space: normal; background-color: rgb(251, 251, 251);&quot;&gt;Pet Clinic Config Service&lt;br&gt;&lt;/span&gt;" style="image;aspect=fixed;html=1;points=[];align=center;fontSize=12;image=img/lib/azure2/other/Worker_Container_App.svg;" vertex="1" parent="1">
          <mxGeometry x="470" y="610" width="70" height="70" as="geometry" />
        </mxCell>
        <mxCell id="ZOS8axkjkWzgQE2gru72-19" value="&lt;span style=&quot;white-space: normal; background-color: rgb(251, 251, 251);&quot;&gt;Pet Clinic Customers Svc&lt;/span&gt;" style="image;aspect=fixed;html=1;points=[];align=center;fontSize=12;image=img/lib/azure2/other/Worker_Container_App.svg;" vertex="1" parent="1">
          <mxGeometry x="700" y="270" width="70" height="70" as="geometry" />
        </mxCell>
        <mxCell id="ZOS8axkjkWzgQE2gru72-20" value="&lt;span style=&quot;white-space: normal; background-color: rgb(251, 251, 251);&quot;&gt;Pet Clinic Visits Svc&lt;/span&gt;" style="image;aspect=fixed;html=1;points=[];align=center;fontSize=12;image=img/lib/azure2/other/Worker_Container_App.svg;" vertex="1" parent="1">
          <mxGeometry x="700" y="539" width="70" height="70" as="geometry" />
        </mxCell>
        <mxCell id="ZOS8axkjkWzgQE2gru72-21" value="&lt;span style=&quot;white-space: normal; background-color: rgb(251, 251, 251);&quot;&gt;Pet Clinic Vets Svc&lt;/span&gt;" style="image;aspect=fixed;html=1;points=[];align=center;fontSize=12;image=img/lib/azure2/other/Worker_Container_App.svg;" vertex="1" parent="1">
          <mxGeometry x="700" y="400" width="70" height="70" as="geometry" />
        </mxCell>
      </root>
    </mxGraphModel>
  </diagram>
</mxfile>
